# xmcd
#
# Track frame offsets: 
#        150
#        16879
#        31995
#        50393
#        68987
#        83947
#        98056
#        114969
#        131546
#        148911
#        167632
#        182278
#        198797
#        214869
#        234352
#        245785
#        261364
#        277939
#        294812
#        308623
#        324937
#        340421
#
# Disc length: 4755 seconds
#
# Revision: 0
# Processed by: cddbd v1.5.2PL0 Copyright (c) Steve Scherf et al.
# Submitted via: ExactAudioCopy v0.99pb4
#
DISCID=30129116
DTITLE=Various Artist - prevue promo 1127A-1
DYEAR=2003
DGENRE=pop
TTITLE0=Aaron Carter - My Shorty
TTITLE1=Aaron Carter - One Better(Remix)
TTITLE2=Five For Fighting - 100 Years
TTITLE3=Floetry - Getting Late(Live Version Radio Edit)
TTITLE4=Baby Bash - Shorty Doo Wop
TTITLE5=Kelis - Milkshake(LYRICS!!)
TTITLE6=Britney Spears feat. Madonna - Me Against The Music(Peter Rauh
TTITLE6=ofer Radio Mix)
TTITLE7=Britney Spears feat Madonna - Me Against The Music(Gabriel and D
TTITLE7=resden Radio Mix)
TTITLE8=Calvin Richardson feat. Rah Digga - Keep On Pushin'(Remix)
TTITLE9=Marques Houston feat. Jermaine "JD" Dupri - Pop That Booty(Lyr
TTITLE9=ic - "Amended Main Version")
TTITLE10=Johnny Cash - Long Black Veil
TTITLE11=Eastmountainsouth - Rain Come Down
TTITLE12=Fleetwood Mac - Steal Your Heart Away
TTITLE13=Maria McKee - In Your Constellation
TTITLE14=Brenda Weiler - Out Of The Blue
TTITLE15=Paul Burch - Life Of A Fool
TTITLE16=Dave Matthews - Save Me(Remix)
TTITLE17=AFI - Silver And Cold
TTITLE18=Crystal Method - Born Too Slow
TTITLE19=Pennywise - Yesterdays
TTITLE20=Phantom Planet - Big Brat
TTITLE21=HIM - Join Me
EXTD=
EXTT0=
EXTT1=
EXTT2=
EXTT3=
EXTT4=
EXTT5=
EXTT6=
EXTT7=
EXTT8=
EXTT9=
EXTT10=
EXTT11=
EXTT12=
EXTT13=
EXTT14=
EXTT15=
EXTT16=
EXTT17=
EXTT18=
EXTT19=
EXTT20=
EXTT21=
PLAYORDER=
